<svg xmlns="http://www.w3.org/2000/svg" xmlns:xlink="http://www.w3.org/1999/xlink" viewBox="-4570 -2 300 50">
  <defs>
    <style>
      .cls-1 {
        clip-path: url(#clip-mediastream);
      }

      .cls-2 {
        fill: #97d700;
      }

      .cls-3 {
        fill: #fff;
      }
    </style>
    <clipPath id="clip-mediastream">
      <rect x="-4570" y="-2" width="300" height="50"/>
    </clipPath>
  </defs>
  <g id="mediastream" class="cls-1">
    <g id="Group_258" data-name="Group 258" transform="translate(-4578 -163)">
      <path id="path" class="cls-2" d="M.082.049A2.385,2.385,0,0,0,.814-3.239a2.377,2.377,0,0,0-3.292-.726,18.141,18.141,0,0,0-.006,30.607,2.325,2.325,0,0,0,1.281.377,2.383,2.383,0,0,0,2.012-1.1,2.38,2.38,0,0,0-.726-3.288A13.383,13.383,0,0,1,.082.049M22.2,11.343A18.107,18.107,0,0,0,13.8-3.965a2.374,2.374,0,0,0-3.289.726A2.384,2.384,0,0,0,11.239.053a13.379,13.379,0,0,1,0,22.574,2.383,2.383,0,0,0,1.283,4.391,2.32,2.32,0,0,0,1.281-.377,18.119,18.119,0,0,0,8.4-15.3m-3.917-22.38A2.383,2.383,0,0,0,15-10.305a2.385,2.385,0,0,0,.733,3.292,21.756,21.756,0,0,1,0,36.709,2.38,2.38,0,0,0,1.29,4.386,2.34,2.34,0,0,0,1.276-.373,26.52,26.52,0,0,0-.01-44.746M-4.41,29.7h0A21.76,21.76,0,0,1-4.4-7.013a2.386,2.386,0,0,0,.727-3.292,2.379,2.379,0,0,0-3.289-.732,26.525,26.525,0,0,0-.005,44.746,2.321,2.321,0,0,0,1.276.373,2.37,2.37,0,0,0,2.012-1.1A2.377,2.377,0,0,0-4.41,29.7" transform="translate(28.244 174.411)"/>
      <path id="path-2" data-name="path" class="cls-3" d="M1.013.053A6.81,6.81,0,0,0-1.635-2.474a7.366,7.366,0,0,0-3.632-.921,8.459,8.459,0,0,0-3.383.669A13.618,13.618,0,0,0-11.8-.72a5.189,5.189,0,0,0-1.7-1.671,7.931,7.931,0,0,0-4.082-1,7.846,7.846,0,0,0-5.46,2.122,3.892,3.892,0,0,0-3.16-1.986,2.568,2.568,0,0,0-2.075,1.091A3.973,3.973,0,0,0-29.033.237V14.971a3.7,3.7,0,0,0,.822,2.433,2.746,2.746,0,0,0,2.218.985,2.783,2.783,0,0,0,2.262-.971,3.677,3.677,0,0,0,.816-2.447V5.013a3.035,3.035,0,0,1,.924-2.251,3.08,3.08,0,0,1,2.24-.909A2.766,2.766,0,0,1-17.366,2.91a4.5,4.5,0,0,1,.775,2.727v9.334a3.669,3.669,0,0,0,.834,2.433,2.8,2.8,0,0,0,2.254.985,2.736,2.736,0,0,0,2.222-.967,3.671,3.671,0,0,0,.809-2.451V5.013a3.116,3.116,0,0,1,.891-2.246,3.016,3.016,0,0,1,2.248-.914A3.212,3.212,0,0,1-5,2.726a3.02,3.02,0,0,1,.906,2.288v9.957a4.123,4.123,0,0,0,.354,1.71,2.977,2.977,0,0,0,1.047,1.251,2.891,2.891,0,0,0,1.635.457,2.737,2.737,0,0,0,2.245-.963,3.715,3.715,0,0,0,.794-2.455V3.65a6.855,6.855,0,0,0-.967-3.6M-38.3,10.2a4.558,4.558,0,0,1-1.542,1.894,3.95,3.95,0,0,1-2.363.722A3.333,3.333,0,0,1-45.223,11.2,6.923,6.923,0,0,1-46.236,7.43a6.229,6.229,0,0,1,1.073-3.567A3.389,3.389,0,0,1-42.2,2.268a3.783,3.783,0,0,1,3.332,1.546,6.58,6.58,0,0,1,1.095,3.911A6.055,6.055,0,0,1-38.3,10.2m3.682-13.455a3.1,3.1,0,0,0-2.956,2.24A8.886,8.886,0,0,0-40-2.865a6.53,6.53,0,0,0-2.858-.57,8.681,8.681,0,0,0-6.294,2.8,10.927,10.927,0,0,0-3.2,8.159,11.027,11.027,0,0,0,3.621,8.664,8.882,8.882,0,0,0,5.995,2.323,6.142,6.142,0,0,0,2.853-.6,7.408,7.408,0,0,0,2.272-1.941c.567,1.616,1.556,2.416,2.96,2.416a2.8,2.8,0,0,0,2.3-1.06,3.972,3.972,0,0,0,.86-2.566V-.142a3.034,3.034,0,0,0-.9-2.214,3.017,3.017,0,0,0-2.216-.9M-68.867,5.4q1.259-3.838,4.076-3.835,3.192,0,4.174,3.835Zm13.642,3.5a3.093,3.093,0,0,0,.6-2.119A10.192,10.192,0,0,0-55.945,1.7a9.862,9.862,0,0,0-3.649-3.746,9.847,9.847,0,0,0-5.115-1.385,10.136,10.136,0,0,0-5.334,1.471A10.564,10.564,0,0,0-73.851,2a11.051,11.051,0,0,0-1.385,5.431,10.889,10.889,0,0,0,2.289,7.171,10.369,10.369,0,0,0,3.856,2.915,11.757,11.757,0,0,0,4.8.99,13.633,13.633,0,0,0,6.87-1.7c1.64-.94,2.461-1.973,2.461-3.121a2.3,2.3,0,0,0-.366-1.218,2.664,2.664,0,0,0-.99-.933,2.562,2.562,0,0,0-1.267-.345,3.247,3.247,0,0,0-1.167.3l-1.755.871a7.69,7.69,0,0,1-3.45.828,4.657,4.657,0,0,1-2.874-.961,5.145,5.145,0,0,1-1.836-2.657h11.416A2.615,2.615,0,0,0-55.225,8.9m-23.7-12.3q-1.924,0-4.119,2.3a3.351,3.351,0,0,0-3.173-2.163,2.833,2.833,0,0,0-2.2,1.035,3.524,3.524,0,0,0-.741,2.46V14.971a3.673,3.673,0,0,0,.824,2.433,2.73,2.73,0,0,0,2.212.985,2.782,2.782,0,0,0,2.264-.971,3.678,3.678,0,0,0,.818-2.447V6.61a2.984,2.984,0,0,1,.955-2.5,11.207,11.207,0,0,1,3.242-1.547A8.275,8.275,0,0,0-76.48,1.478a2.238,2.238,0,0,0,.77-1.913,2.728,2.728,0,0,0-.945-2.116,3.3,3.3,0,0,0-2.266-.844m-15.566.417h-1.745V-6.8A3.676,3.676,0,0,0-97.05-9.24a2.739,2.739,0,0,0-2.219-.974,2.768,2.768,0,0,0-2.257.984,3.64,3.64,0,0,0-.826,2.428v3.824a5.687,5.687,0,0,0-2.406.377,2.236,2.236,0,0,0-1,1,2.83,2.83,0,0,0-.386,1.386,2.658,2.658,0,0,0,.708,1.873c.523.6,1.55.912,3.079.912V14.971a3.654,3.654,0,0,0,.834,2.433,2.789,2.789,0,0,0,2.249.985,2.743,2.743,0,0,0,2.225-.967,3.683,3.683,0,0,0,.812-2.451V2.565h1.745a3.294,3.294,0,0,0,2.193-.749A2.537,2.537,0,0,0-91.4-.22a2.48,2.48,0,0,0-.886-2.024,3.322,3.322,0,0,0-2.2-.734M-114.06,5.228l-1.278-.506a5.518,5.518,0,0,1-1.37-.743,1.246,1.246,0,0,1-.553-1q.054-.9,1.454-.994a7,7,0,0,1,2.5.618,10.779,10.779,0,0,0,2.418.836,2.327,2.327,0,0,0,1.8-.844,2.761,2.761,0,0,0,.733-1.863,3.4,3.4,0,0,0-1.743-2.66,9.358,9.358,0,0,0-5.417-1.509,7.7,7.7,0,0,0-5.867,2.422,6,6,0,0,0-1.8,4.412,4.7,4.7,0,0,0,1.377,3.58,12.056,12.056,0,0,0,3.917,2.3l1.66.618a12.786,12.786,0,0,1,1.8.79,1.145,1.145,0,0,1,.582,1.077,1.083,1.083,0,0,1-.591.969,2.282,2.282,0,0,1-1.241.369,6.316,6.316,0,0,1-2.419-.663c-.243-.124-.515-.257-.815-.4s-.567-.259-.792-.351a6.581,6.581,0,0,0-.775-.241,3.608,3.608,0,0,0-.82-.1,2.272,2.272,0,0,0-1.738.867,2.7,2.7,0,0,0-.761,1.807,3.04,3.04,0,0,0,1.386,2.558,9.089,9.089,0,0,0,3.242,1.477,14.243,14.243,0,0,0,3.362.457,8.281,8.281,0,0,0,5.623-1.83,6.5,6.5,0,0,0,1.7-2.327,6.977,6.977,0,0,0,.6-2.832,5.323,5.323,0,0,0-1.512-3.67,13.024,13.024,0,0,0-4.664-2.624M-133.451,10.2a4.52,4.52,0,0,1-1.532,1.894,3.964,3.964,0,0,1-2.366.722,3.325,3.325,0,0,1-3.02-1.616,6.915,6.915,0,0,1-1.013-3.767,6.228,6.228,0,0,1,1.072-3.567,3.379,3.379,0,0,1,2.962-1.595,3.808,3.808,0,0,1,3.34,1.546,6.641,6.641,0,0,1,1.085,3.911,5.916,5.916,0,0,1-.527,2.473m3.689-13.455a3.112,3.112,0,0,0-2.959,2.24,8.847,8.847,0,0,0-2.427-1.846,6.55,6.55,0,0,0-2.857-.57,8.677,8.677,0,0,0-6.295,2.8,10.945,10.945,0,0,0-3.2,8.159,11.036,11.036,0,0,0,3.619,8.664,8.9,8.9,0,0,0,6,2.323,6.134,6.134,0,0,0,2.853-.6,7.3,7.3,0,0,0,2.269-1.941c.573,1.616,1.561,2.416,2.963,2.416a2.8,2.8,0,0,0,2.3-1.06,3.932,3.932,0,0,0,.858-2.566V-.142a3.031,3.031,0,0,0-.9-2.214,3.028,3.028,0,0,0-2.219-.9m-23.97,0a2.773,2.773,0,0,0-2.234.964,3.614,3.614,0,0,0-.806,2.407V14.971a3.668,3.668,0,0,0,.824,2.433,2.729,2.729,0,0,0,2.216.985,2.777,2.777,0,0,0,2.26-.971,3.69,3.69,0,0,0,.82-2.447V.112a3.567,3.567,0,0,0-.829-2.407,2.822,2.822,0,0,0-2.251-.964m1.843-8.674a3.364,3.364,0,0,0-1.768-.486,3.383,3.383,0,0,0-2.495,1.062,3.511,3.511,0,0,0-1.038,2.519,3.51,3.51,0,0,0,1.038,2.52,3.384,3.384,0,0,0,2.495,1.067,3.385,3.385,0,0,0,2.5-1.067,3.5,3.5,0,0,0,1.043-2.52,3.476,3.476,0,0,0-.481-1.778,3.616,3.616,0,0,0-1.295-1.317m-14.558,21.66a4.844,4.844,0,0,1-1.411,2.011,3.358,3.358,0,0,1-2.229.78,3.615,3.615,0,0,1-3.1-1.6,6.075,6.075,0,0,1-1.15-3.649,6.691,6.691,0,0,1,.489-2.549,4.713,4.713,0,0,1,1.45-1.981,3.623,3.623,0,0,1,2.31-.76,3.368,3.368,0,0,1,2.229.779,4.878,4.878,0,0,1,1.411,2,6.793,6.793,0,0,1,.476,2.479,6.864,6.864,0,0,1-.476,2.5m3.519-22.146a2.808,2.808,0,0,0-2.263.964,3.584,3.584,0,0,0-.82,2.4v7.582A7.546,7.546,0,0,0-170.8-3.436a8.7,8.7,0,0,0-5.905,2.261,10.849,10.849,0,0,0-2.71,3.711,10.519,10.519,0,0,0-1.041,4.441,13.215,13.215,0,0,0,2.29,7.7,9.548,9.548,0,0,0,3.037,2.795,7.52,7.52,0,0,0,3.829,1.037,7.442,7.442,0,0,0,3.074-.587,5.959,5.959,0,0,0,2.307-1.951,4.3,4.3,0,0,0,1.145,1.822,2.842,2.842,0,0,0,1.9.595,2.6,2.6,0,0,0,2.207-1.008,3.954,3.954,0,0,0,.78-2.486V-9.057a3.572,3.572,0,0,0-.816-2.4,2.771,2.771,0,0,0-2.225-.962m-34,17.822q1.27-3.838,4.078-3.835,3.2,0,4.168,3.835Zm13.641,3.5a3.093,3.093,0,0,0,.6-2.119A10.231,10.231,0,0,0-184,1.7a9.885,9.885,0,0,0-3.652-3.746,9.827,9.827,0,0,0-5.113-1.385,10.1,10.1,0,0,0-5.33,1.471A10.573,10.573,0,0,0-201.909,2a11.017,11.017,0,0,0-1.383,5.431,10.919,10.919,0,0,0,2.284,7.171,10.466,10.466,0,0,0,3.856,2.915,11.766,11.766,0,0,0,4.808.99,13.644,13.644,0,0,0,6.872-1.7c1.639-.94,2.456-1.973,2.456-3.121a2.308,2.308,0,0,0-.362-1.218,2.683,2.683,0,0,0-.986-.933,2.6,2.6,0,0,0-1.274-.345,3.288,3.288,0,0,0-1.167.3l-1.75.871a7.7,7.7,0,0,1-3.455.828,4.694,4.694,0,0,1-2.878-.961,5.171,5.171,0,0,1-1.829-2.657H-185.3a2.612,2.612,0,0,0,2.018-.668m-25.73-11.375a7.414,7.414,0,0,0-3.637-.921,8.463,8.463,0,0,0-3.386.669A13.438,13.438,0,0,0-219.184-.72a5.227,5.227,0,0,0-1.709-1.671,7.884,7.884,0,0,0-4.075-1,7.856,7.856,0,0,0-5.463,2.122,3.894,3.894,0,0,0-3.162-1.986,2.566,2.566,0,0,0-2.069,1.091,3.955,3.955,0,0,0-.754,2.405V14.971a3.689,3.689,0,0,0,.824,2.433,2.734,2.734,0,0,0,2.216.985,2.761,2.761,0,0,0,2.258-.971,3.66,3.66,0,0,0,.823-2.447V5.013a3.051,3.051,0,0,1,.916-2.251,3.1,3.1,0,0,1,2.242-.909,2.753,2.753,0,0,1,2.383,1.057,4.463,4.463,0,0,1,.784,2.727v9.334a3.677,3.677,0,0,0,.83,2.433,2.8,2.8,0,0,0,2.249.985,2.734,2.734,0,0,0,2.225-.967,3.687,3.687,0,0,0,.81-2.451V5.013a3.109,3.109,0,0,1,.892-2.246,3.012,3.012,0,0,1,2.24-.914,3.233,3.233,0,0,1,2.343.872,3.023,3.023,0,0,1,.906,2.288v9.957a4.016,4.016,0,0,0,.356,1.71,2.951,2.951,0,0,0,1.045,1.251,2.883,2.883,0,0,0,1.637.457,2.746,2.746,0,0,0,2.243-.963,3.721,3.721,0,0,0,.794-2.455V3.65a6.883,6.883,0,0,0-.968-3.6,6.853,6.853,0,0,0-2.641-2.527" transform="translate(305.02 181.478)"/>
    </g>
  </g>
</svg>
